<?xml version="1.0" encoding="utf-8"?>
<!-- Generator: Adobe Illustrator 26.1.0, SVG Export Plug-In . SVG Version: 6.00 Build 0)  -->
<svg version="1.1" id="圖層_1" xmlns="http://www.w3.org/2000/svg" xmlns:xlink="http://www.w3.org/1999/xlink" x="0px" y="0px"
	 viewBox="0 0 248.7 162.2" style="enable-background:new 0 0 248.7 162.2;" xml:space="preserve">
<style type="text/css">
	.st0{fill:#004998;}
	.st1{fill:#FFF100;}
	.st2{fill:#FFFFFF;}
	.st3{fill:#00953B;}
	.st4{fill:#76777A;}
</style>
<g>
	<g>
		<g>
			<g>
				<path class="st0" d="M42.5,77.6c1.9,2.1,12.3,15.9,12.3,15.9s1.3,1.7,3.2,1.7H60v2.1h-7.4c-1.8,0-3.1-2.1-3.1-2.1
					s-9.4-12.8-11.4-15.1c-0.7-0.8-1.2-1.5-1.7-1.9c-0.9-0.7-1.7-0.5-1.7-0.5h-0.9V93c0,0,0.1,1.8,1.7,1.8h2.7v2.3H23.6v-2.1h2.1
					c2.1,0,2-2.2,2-2.2V73.9L6.6,73.9l-0.1-2.4h21.2V55h9.4c0.4,0,0.4,0.6,0.4,0.6v1c0,0,0.1,0.6-0.4,0.6h-1.1c-0.9,0-1.2,0-1.8,0.4
					c-0.5,0.4-0.5,1.5-0.5,1.5v3.6h22V65h-22v6.4h25.7v2.5l-25.7,0v2H38C38,76,40.9,75.8,42.5,77.6"/>
				<g>
					<path class="st0" d="M64.6,67.2v-2.4h4.8c3.4,0,4.5,1.7,4.5,1.7l4.2,5.3c0,0,1.4,1.8,3.5,1.8h3.2v2.3h-7
						c-2.9,0-4.3-2.1-4.3-2.1l-4.1-5c0,0-0.9-1.5-2.9-1.5C64.5,67.1,64.6,67.2,64.6,67.2"/>
					<path class="st0" d="M85,79.7v-2.3h-4.4c-3.4,0-5,2.7-5,2.7l-7.8,13.2c0,0-0.7,1.6-2.9,1.6h-1.2v2.3h5.4c3.4,0,5.1-3.3,5.1-3.3
						L81,81.8c0,0,1.2-2.1,2.9-2.1H85z"/>
					<path class="st0" d="M119.8,61.9v-2.6H95.7l0.8-1c0,0,0.2-0.7,1.8-0.7h2.6c0.4,0,0.4-0.6,0.4-0.6v-1c0,0-0.1-0.7-0.4-0.7h-6.1
						c-2,0-3.1,1.3-3.1,1.3l-6.7,7.9c0,0-0.5,0.7-1.2,0.7h-1.6c-0.6,0-1.1-0.8-1.1-0.8l-5.9-7.6c0,0-1.1-1.6-3.7-1.6h-5.7v2.4
						c0,0,0.1,0,1.9,0c1.8,0,2.5,1.1,2.5,1.1l5.6,7c0,0,1.2,1.8,4,1.8h6.5c3,0,4.2-1.8,4.2-1.8l3.5-3.7h13.2l-5.5,3.8l-0.9-0.5h-9.3
						v0.6l5.7,3.3l-5,3.5c0,0-1.5,1.1-3.3,1.1h-3.2v2.2h7.8c2.7,0,3.9-1.2,3.9-1.2l4.6-3.2l5.4,3.2c0,0,1.8,1.2,4.2,1.2h7.8v-2.2
						h-2.4c-1.8,0-2.7-0.5-2.7-0.5l-7.6-4.4l9.4-6.8H119.8z"/>
					<path class="st0" d="M103.8,94.7h-8.5c0,0-1.1,0.2-1.1-1.2c0-1.4,0.1-11.7,0.1-12.7c0-1,0.9-1,0.9-1h8.6c0,0,6.9,0.4,6.9,7.7
						C110.7,94.9,103.8,94.7,103.8,94.7 M106.6,77.4H88.5v19.9h18.3c0,0,10.5,0.7,10.5-9.6C117.2,77.4,106.6,77.4,106.6,77.4"/>
				</g>
				<g>
					<path class="st0" d="M123,67.7v-2.9h6v-9.7h8.1c0.6,0,0.4,0.6,0.4,0.6v1c0,0,0.1,0.5-0.3,0.5h-0.8c-1.9,0-1.9,1.8-1.9,1.8v5.7
						h5.4v3h-5.4V90c0,0.8-0.1,1.8,0.1,1.9c0.3,0.2,1.8,0.1,1.8,0.1l5.5-0.3v2.2l-18.4,1.8V93l3.8-0.4c0,0,1.3-0.1,1.5-0.4
						c0.2-0.3,0.2-0.9,0.2-1.7V67.7L123,67.7z"/>
					<path class="st0" d="M147.3,64.9h5.7v-3.1h11.1v3.1h5.9v-3h7.1V59H170v-0.7c0,0,0-1,0.9-1h1.1c0.4,0,0.5-0.5,0.5-0.5v-1.2
						c0,0-0.2-0.5-0.5-0.5h-8v4h-11v-1c0,0-0.1-0.7,0.8-0.7c0.9,0,1.1-0.1,1.5-0.1c0.4,0,0.5-0.7,0.5-0.7v-0.9c0,0-0.1-0.7-0.5-0.7
						h-7.9V59H140v2.7l7.4,0V64.9z"/>
					<path class="st0" d="M150.1,73.4c0,0,6.3-6,6.5-6.2c0.2-0.2,0.8-0.2,0.8-0.2l1.1,0c0,0,0.3-0.1,0.7,0.2
						c0.3,0.3,6.4,6.1,6.4,6.1L150.1,73.4z M176.1,76.7L163.3,65H155l-12.3,11.5c0,0-0.9,1.4-3.1,1.4h-1.6V80c0,0,0.6,0.1,2.8,0.1
						c3,0,4-1.6,4-1.6l2.6-2.4h21.3l2.2,2.4c0,0,1.4,1.7,3.9,1.7h5.3v-2.3h-1.4C177.2,77.8,176.1,76.7,176.1,76.7"/>
					<path class="st0" d="M160.8,94.7H152V82.6h8.5c0,0,5.4,0.1,5.4,6C166,94.5,160.8,94.7,160.8,94.7 M165.3,79.9h-19.2v17.4
						l18.3-0.1c0,0,8.7-0.1,8.7-8.6C173.1,80.1,165.3,79.9,165.3,79.9"/>
				</g>
				<g>
					<path class="st0" d="M222.4,65.6l-10.8,0v-5.9h10.7c0,0,2.9-0.3,2.9,2.9C225.1,65.9,222.4,65.6,222.4,65.6 M193.9,88.5
						c0,0-2.1-2.8-2.1-6.5V65.7h4.1c0,0,0.1,11.8,0.1,16.2C196,86.2,193.9,88.5,193.9,88.5 M225.3,56.9h-13.7v-1.6h-5.8v34.6
						c0,0,0.6,4.3-3.7,5c-4.1-0.3-5.3-3.3-5.3-3.3s4.8-3.5,4.8-11.5V65.5h2.4v-2.9h-12.2v-4.5c0,0-0.1-0.6,0.6-0.6h1.4
						c0.5,0,0.4-0.6,0.4-0.6v-1c0,0,0.1-0.6-0.5-0.6H186v7.5h-4.8v2.9l4.9,0v15.4c0,6.9,4.9,11.1,4.9,11.1s-1.4,1.5-3.4,2.3
						c-1.9,0.8-4.7,0.4-4.7,0.4v2.5c0,0,4,0.4,6.9-0.8c2.9-1.2,4.1-2.2,4.1-2.2s1.8,1.4,4.4,2.4c2,0.7,4.5,1.1,7,0.3
						c5.9-1.8,6.1-8.6,6.1-8.6V68.3h13.7c0,0,6.1,0.1,6.1-5.7C231.3,56.9,225.3,56.9,225.3,56.9"/>
					<path class="st0" d="M213.9,70.8h5.8v11.8c0,0,0.6,0,1.2-0.6c0.4-0.4,5.4-9.3,5.4-9.3s0.9-2.1,3.9-2.1h4.4V73h-1
						c-1.2,0-1.7,1.2-1.7,1.2l-4.8,8.5c0,0-1.2,2.3-3.8,2.3h-3.6v5.7c0,0,0.2,3.9,3.6,3.9h3c3.4,0,4.9-4.3,4.9-4.3l0.6-1.6h2.5
						l-2,6.8c0,0-0.1,1.8-3.2,1.8h-7.8c-7.6,0-7.6-6.5-7.6-6.5L213.9,70.8z"/>
				</g>
			</g>
			<g>
				<path class="st0" d="M59.8,112c-0.1,0.9-0.3,2.1-0.4,3.3c-0.3,2-0.8,3.8-1.5,5.6c-1.3,3.4-2.3,5.3-3.2,5.5
					c-0.3,0.1-0.5,0-0.8-0.1c-0.3-0.1-0.4-0.3-0.5-0.5c-0.1-0.3,0.1-0.8,0.6-1.5c-0.2,0-0.4,0-0.6-0.1c-0.3-0.1-0.4-0.4-0.5-0.6
					c0,0,0,0,0,0l-7.6,1.1c-0.4,0.1-0.7,0-0.9-0.1c-0.2-0.2-0.4-0.4-0.5-0.6c0-0.3,0-0.5,0.2-0.7c0.2-0.2,0.5-0.3,0.9-0.4l0.5-0.1
					c1.1-1.6,2.1-3.2,3-4.8c-1.4-1.5-2.9-2.9-4.4-4.1c-0.3-0.2-0.4-0.4-0.5-0.6c0-0.2,0-0.4,0.2-0.6c0.2-0.2,0.4-0.3,0.7-0.4
					c0.4,0,0.9,0.2,1.6,0.7c0.7-1.5,1.3-3.2,1.9-5c0.1-0.3,0.3-0.5,0.6-0.6c0.2-0.1,0.5-0.1,0.8,0c0.3,0.1,0.5,0.2,0.6,0.4
					c0.3,0.5-0.5,2.6-2.4,6.4c0.6,0.6,1.2,1.2,1.9,1.9c0.8-1.5,1.6-3.1,2.3-4.7c0.1-0.3,0.3-0.5,0.5-0.6c0.2-0.1,0.5-0.1,0.8-0.1
					c0.3,0.1,0.5,0.2,0.6,0.4c0.1,0.2,0.1,0.5,0,0.8c-1.2,2.8-3.2,6.3-5.8,10.4l4.3-0.5c-0.1-0.1-0.1-0.3-0.2-0.4
					c-0.4-0.8-0.6-1.3-0.7-1.6c-0.2-0.3-0.2-0.5-0.1-0.8c0.1-0.2,0.3-0.4,0.5-0.5c0.3-0.1,0.5-0.1,0.8-0.1c0.7,0.2,1.4,1.7,2.2,4.3
					c1.6-3.3,2.7-6.9,3.1-11h-2.3c-0.4,0-0.6-0.1-0.8-0.3c-0.2-0.2-0.3-0.4-0.3-0.6c0-0.3,0.1-0.5,0.3-0.6c0.2-0.1,0.5-0.2,0.8-0.2
					h2.4c0-0.2,0-0.3,0-0.5v-1.9c0-0.3,0.1-0.5,0.3-0.7c0.2-0.2,0.4-0.3,0.7-0.3c0.3,0,0.5,0.1,0.7,0.2c0.2,0.2,0.3,0.4,0.3,0.7v1.9
					c0,0.2,0,0.3,0,0.5h3.5c0.7,0,1.2,0.2,1.6,0.5c0.3,0.3,0.5,0.7,0.5,1.2c0,6.1-0.3,10.1-0.9,12c-0.3,0.7-0.8,1.3-1.5,1.7
					c-0.6,0.3-1.3,0.5-2.3,0.5c-1,0-1.8-0.1-2.5-0.3c-0.4-0.1-0.6-0.3-0.8-0.5c-0.2-0.2-0.2-0.5-0.1-0.8c0.2-0.6,0.6-0.8,1.5-0.6
					c1.4,0.4,2.4,0.4,3,0c0.4-0.2,0.7-0.6,0.9-1.3c0.2-0.6,0.4-2,0.5-4c0.1-2,0.1-3.9,0.1-5.7c0-0.4-0.1-0.6-0.3-0.8
					c-0.2-0.1-0.5-0.2-0.9-0.2H59.8z"/>
				<path class="st0" d="M90,118h-4.3v1.6c0,0.5-0.1,0.9-0.2,1.3c-0.8,2.2-2.6,3.8-5.4,4.8c-1,0.4-1.8,0.5-2.1,0.3
					c-0.2-0.1-0.4-0.3-0.5-0.6c0-0.3,0-0.5,0.1-0.7c0.2-0.2,0.4-0.4,0.8-0.4c1-0.2,2.1-0.7,3.3-1.4c1.4-0.9,2.1-2,2.1-3.3V118h-2.9
					c-0.6,0-1.1-0.2-1.4-0.5c-0.4-0.4-0.6-0.8-0.6-1.2v-6.4c0-0.4,0.1-0.8,0.3-1c0.3-0.3,0.8-0.5,1.5-0.5c1.8-0.2,3.5-0.6,5.2-1.1
					c0.3-0.1,0.6-0.1,0.9,0c0.3,0.1,0.5,0.3,0.6,0.5c0.1,0.2,0.1,0.5,0,0.7c-0.3,0.5-2,1-5.3,1.4c-0.5,0-0.8,0.1-1,0.3
					c-0.1,0.1-0.2,0.3-0.1,0.6v1.3h5.1c0.3,0,0.5,0.1,0.7,0.2c0.2,0.2,0.3,0.4,0.3,0.6c0,0.2-0.1,0.5-0.3,0.6
					c-0.2,0.2-0.4,0.3-0.7,0.3h-5.1v1.6c0,0.3,0.1,0.5,0.2,0.6c0.2,0.1,0.4,0.2,0.7,0.2H95c0.3,0,0.5-0.1,0.6-0.2
					c0.2-0.2,0.3-0.4,0.3-0.6v-1.7h-5.1c-0.3,0-0.6-0.1-0.8-0.2c-0.2-0.2-0.3-0.4-0.3-0.6c0-0.2,0.1-0.5,0.3-0.6
					c0.2-0.2,0.5-0.2,0.8-0.2h5.1v-1.7c0-0.5-0.3-0.7-0.8-0.7h-4.1c-0.4,0-0.7-0.1-0.9-0.3c-0.2-0.2-0.3-0.4-0.3-0.6
					c0-0.3,0.1-0.5,0.3-0.6c0.2-0.2,0.5-0.2,0.8-0.2h5.3c0.5,0,0.9,0.1,1.2,0.4c0.3,0.3,0.5,0.7,0.5,1.1v6.9c0,0.5-0.2,0.9-0.7,1.3
					c-0.4,0.4-0.9,0.5-1.5,0.5h-3.8v5.1c0,0.3,0.1,0.5,0.3,0.7c0.2,0.2,0.5,0.3,0.8,0.3c0.8,0,1.5,0,2.3,0c1.3,0,1.9-0.4,1.9-1.1
					c-0.2-1.2-0.1-1.9,0.3-2.3c0.2-0.2,0.4-0.3,0.7-0.3c0.3,0,0.5,0.1,0.7,0.2c0.2,0.2,0.3,0.4,0.3,0.7c0,1.1-0.1,1.8-0.1,2.2
					c-0.1,0.9-0.6,1.6-1.5,1.9c-0.5,0.2-1.7,0.3-3.8,0.3c-1.5,0-2.5-0.2-3.1-0.4c-0.7-0.4-1.1-1-1.1-1.7V118z"/>
				<path class="st0" d="M121.4,122.3h-9c-0.3,0-0.6-0.1-0.8-0.2c-0.2-0.2-0.3-0.4-0.3-0.6c0-0.2,0.1-0.5,0.3-0.6
					c0.2-0.2,0.5-0.2,0.8-0.2h9c0-1.1,0-2.1,0-3.2h-7.8c-0.3,0-0.6-0.1-0.8-0.2c-0.2-0.2-0.3-0.4-0.3-0.6c0-0.2,0.1-0.5,0.3-0.6
					c0.2-0.2,0.5-0.2,0.8-0.2h7.8c0-1.1,0-2.1,0-3.2h-8.4c-0.3,0-0.6-0.1-0.8-0.2c-0.2-0.2-0.3-0.4-0.3-0.6c0-0.2,0.1-0.5,0.3-0.6
					c0.2-0.2,0.5-0.2,0.8-0.2h4.7c-0.1-0.1-0.1-0.2-0.2-0.3c-0.4-0.8-0.9-1.4-1.2-1.8c-0.2-0.2-0.3-0.5-0.3-0.7
					c0-0.2,0.2-0.4,0.4-0.6c0.2-0.2,0.5-0.2,0.8-0.2c0.3,0,0.5,0.2,0.7,0.4c0.5,0.6,1,1.3,1.5,2.2c0.1,0.3,0.2,0.5,0.1,0.7
					c0,0.1-0.1,0.2-0.2,0.2h5.9c0,0,0,0,0-0.1c0.8-1.1,1.4-2,1.7-2.7c0.1-0.3,0.3-0.5,0.6-0.6c0.2-0.1,0.5-0.1,0.8,0
					c0.3,0.1,0.5,0.2,0.6,0.4c0.2,0.4-0.2,1.4-1.3,2.9h4.4c0.3,0,0.5,0.1,0.7,0.2c0.2,0.2,0.3,0.4,0.3,0.6c0,0.2-0.1,0.5-0.3,0.6
					c-0.2,0.2-0.4,0.3-0.7,0.3h-8.6c0,1.1,0,2.1,0,3.2h8.3c0.3,0,0.5,0.1,0.7,0.2c0.2,0.2,0.3,0.4,0.3,0.6c0,0.2-0.1,0.4-0.3,0.6
					c-0.2,0.2-0.4,0.3-0.7,0.3h-8.3c0,1.1,0,2.1,0,3.2h9.2c0.3,0,0.5,0.1,0.7,0.2c0.2,0.2,0.3,0.4,0.3,0.6c0,0.2-0.1,0.4-0.3,0.6
					c-0.2,0.2-0.4,0.3-0.7,0.3h-9.2c0,1.1,0,2.2,0,3.3c0,0.3-0.1,0.5-0.3,0.7c-0.2,0.2-0.4,0.3-0.8,0.3c-0.3,0-0.6-0.1-0.8-0.3
					c-0.2-0.2-0.3-0.5-0.3-0.7C121.4,124.5,121.4,123.4,121.4,122.3z"/>
				<path class="st0" d="M149.4,121.4l-2.5-1.9c-0.7-0.6-0.9-1.2-0.5-1.8c0.6-1.1,1.2-2.9,1.8-5.4h-1.6c-0.3,0-0.6-0.1-0.8-0.3
					c-0.2-0.2-0.3-0.4-0.3-0.6c0-0.3,0.1-0.5,0.3-0.6c0.2-0.1,0.5-0.2,0.8-0.2h1.9c0.2-0.9,0.3-1.7,0.3-2.5c0-0.3,0.1-0.6,0.4-0.7
					c0.2-0.1,0.5-0.2,0.9-0.1c0.3,0.1,0.6,0.2,0.7,0.4c0.1,0.3,0.1,1.3-0.2,2.9h2.4c0.5,0,0.9,0.2,1.2,0.5c0.3,0.3,0.4,0.7,0.4,1.2
					c-0.3,3.5-1.1,6.4-2.6,8.7l1.2,0.9c0.3,0.2,0.4,0.4,0.4,0.7c0,0.2-0.1,0.4-0.3,0.6c-0.2,0.2-0.5,0.3-0.7,0.3
					c-0.3,0-0.6-0.1-0.8-0.3l-0.9-0.7c-0.3,0.4-0.6,0.7-0.9,1.1c-1.6,1.7-2.8,2.5-3.4,2.4c-0.3,0-0.5-0.2-0.7-0.4
					c-0.2-0.2-0.3-0.5-0.3-0.7c0-0.4,0.3-0.6,0.7-0.8C147.2,123.6,148.2,122.7,149.4,121.4z M152.1,112.3h-2c-0.4,1.9-1,3.6-1.7,5.3
					c-0.1,0.2-0.1,0.4-0.1,0.5c0,0.1,0.1,0.3,0.4,0.5l1.7,1.3c0.6-0.9,1.1-2.1,1.5-3.6c0.6-2.3,0.8-3.6,0.5-3.8
					C152.4,112.3,152.2,112.3,152.1,112.3z M157,109.6h-2.8c-0.4,0-0.7-0.1-0.9-0.3c-0.2-0.2-0.3-0.4-0.3-0.6c0-0.3,0.1-0.5,0.3-0.6
					c0.2-0.2,0.5-0.3,0.9-0.3h8.9c0.6,0,1.1,0.1,1.5,0.4c0.4,0.4,0.5,0.9,0.3,1.5l-0.4,3.9c0,0.2,0,0.4,0.2,0.5
					c0.2,0.1,0.3,0.1,0.5,0.1h0.8c0.5,0,0.9,0.1,1.2,0.4c0.3,0.3,0.5,0.6,0.5,0.9c0.3,4.9-0.1,7.9-1.2,9.2c-0.3,0.3-0.7,0.6-1.1,0.9
					c-1,0.5-2.5,0.7-4.6,0.4c-1.6-0.2-2.5-0.5-2.8-1c-0.1-0.2-0.1-0.5,0-0.7c0.1-0.3,0.3-0.5,0.6-0.6c0.3-0.1,0.6-0.1,1,0
					c1.1,0.3,2,0.5,2.7,0.6c1,0.1,1.6-0.1,1.9-0.4c0.7-0.5,1.2-1.8,1.4-4c0.2-2.2,0.2-3.4-0.1-3.6c-0.1-0.1-0.3-0.1-0.5-0.1h-1.1
					c-0.5,0-0.9-0.1-1.1-0.4c-0.3-0.3-0.4-0.6-0.3-1l0.5-4.5c0-0.2,0-0.4-0.1-0.5c-0.1-0.1-0.2-0.2-0.4-0.2h-3.3v0.8
					c-0.1,6.3-1.5,11.2-4.2,14.6c-0.8,0.8-1.4,1.2-1.8,1.2c-0.3,0-0.5-0.1-0.8-0.3c-0.5-0.5-0.4-1,0.2-1.5c3-2.8,4.4-7.5,4.4-14
					V109.6z"/>
				<path class="st0" d="M185.1,118.5c0,2.3,0,4.7,0,7.1c0,0.3-0.1,0.5-0.3,0.7c-0.2,0.1-0.4,0.2-0.7,0.2c-0.3,0-0.5-0.1-0.7-0.2
					c-0.2-0.2-0.3-0.4-0.3-0.7c0-2.2,0-4.4,0-6.5c-1,2-1.7,3-2.2,3.1c-0.3,0.1-0.5,0-0.8-0.1c-0.2-0.1-0.4-0.3-0.5-0.5
					c0-0.2,0-0.5,0.2-0.7c1.3-1.7,2.2-3.2,2.7-4.8h-2c-0.3,0-0.6-0.1-0.7-0.2c-0.2-0.1-0.3-0.4-0.3-0.6c0-0.2,0.1-0.4,0.3-0.6
					c0.2-0.2,0.4-0.2,0.7-0.2h2.5c0-2.2,0-4.3,0-6.4c0-0.3,0.1-0.5,0.3-0.6c0.2-0.1,0.4-0.2,0.7-0.2c0.3,0,0.5,0.1,0.7,0.2
					c0.2,0.2,0.3,0.4,0.3,0.6c0,2.1,0,4.3,0,6.4h1.9c0.3,0,0.6,0.1,0.7,0.2c0.2,0.1,0.3,0.4,0.3,0.6c0,0.2-0.1,0.4-0.3,0.6
					c-0.2,0.2-0.4,0.3-0.7,0.3h-1.6c1.2,1.6,2.3,3,3.1,4.3c0.1,0.2,0.1,0.4,0.1,0.7c-0.1,0.2-0.2,0.3-0.5,0.5
					c-0.3,0.1-0.5,0.1-0.7,0c-0.3-0.1-0.5-0.2-0.6-0.5C186.2,120.2,185.7,119.4,185.1,118.5z M179.7,109.4c-0.1-0.2-0.1-0.5,0-0.7
					c0.1-0.2,0.3-0.3,0.5-0.4c0.3,0,0.5,0,0.7,0.1c0.3,0.1,0.4,0.3,0.5,0.6c0.6,2.6,0.8,4.1,0.5,4.3c-0.2,0.2-0.4,0.3-0.6,0.3
					c-0.3,0-0.5-0.1-0.7-0.2c-0.2-0.2-0.3-0.4-0.3-0.6C180.2,111.6,180,110.4,179.7,109.4z M187.1,109.1c0.1-0.3,0.2-0.5,0.4-0.6
					c0.2-0.1,0.4-0.1,0.7-0.1c0.3,0.1,0.5,0.2,0.6,0.3c0.1,0.2,0.2,0.4,0.1,0.7c-0.1,0.4-0.5,1.4-1,3c-0.3,0.6-0.6,1-0.8,1.1
					c-0.2,0.1-0.5,0.1-0.7,0c-0.2-0.1-0.4-0.2-0.5-0.4c-0.1-0.2-0.1-0.4,0-0.7C186.1,111.8,186.5,110.7,187.1,109.1z M192.8,116.7
					h-1.6c-0.4,0-0.6-0.1-0.9-0.3c-0.1-0.1-0.2-0.2-0.2-0.3c-0.6,0.8-1,1.2-1.4,1.2c-0.2,0-0.5,0-0.7-0.1c-0.2-0.1-0.3-0.3-0.4-0.5
					c0-0.2,0-0.5,0.2-0.7c1.2-1.5,2.1-3.2,2.5-5c0.1-0.3,0.2-0.5,0.4-0.6c0.2-0.1,0.4-0.2,0.7-0.1c0.3,0,0.5,0.1,0.6,0.3
					c0.1,0.2,0.2,0.5,0.1,0.7c-0.2,1.1-0.7,2.4-1.5,3.7c0.1,0,0.3-0.1,0.4-0.1h6.8c0.7,0,1.1,0,1.3,0.2c-0.7-1.5-1.3-3.2-1.7-5
					c0-0.2-0.1-0.3-0.2-0.4c-0.1-0.1-0.3-0.1-0.4-0.1h-4.5c-0.4,0-0.7-0.1-0.9-0.3c-0.2-0.2-0.3-0.4-0.3-0.6c0-0.3,0.1-0.5,0.3-0.7
					c0.2-0.1,0.5-0.2,0.8-0.2h5.5c0.3,0,0.5,0.1,0.8,0.4c0.3,0.3,0.5,0.6,0.5,1c0,0.1,0,0.2,0.1,0.3c0.6,2.7,1.5,4.8,2.6,6.2
					c0.2,0.3,0.3,0.5,0.3,0.8c0,0.3-0.2,0.5-0.5,0.6c-0.3,0.2-0.7,0.2-1,0c-0.3-0.1-0.5-0.3-0.7-0.6c0,0-0.1-0.1-0.1-0.1
					c0,0.1,0,0.2,0,0.4c0,2.5-0.1,4.4-0.3,5.9c-0.2,1-0.4,1.7-0.8,2.2c-0.3,0.4-0.8,0.7-1.4,1c-1.1,0.4-2.5,0.4-4.2-0.2
					c-0.4-0.1-0.6-0.3-0.7-0.5c-0.1-0.2-0.1-0.5,0-0.7c0.3-0.6,0.7-0.7,1.5-0.5c1.2,0.3,2.1,0.4,2.5,0.2c0.3-0.2,0.6-0.5,0.8-0.8
					c0.1-0.2,0.2-0.5,0.2-1c0.4-3.4,0.4-5.2,0-5.6c-0.1-0.1-0.4-0.2-0.7-0.2h-2.4c-0.7,4.4-2.8,7.5-6.5,9.3
					c-0.3,0.1-0.6,0.2-0.9,0.1c-0.3-0.1-0.5-0.2-0.6-0.4c-0.1-0.1-0.1-0.2-0.1-0.3c-0.1-0.4,0.4-0.9,1.5-1.4
					C190.8,122.4,192.3,119.9,192.8,116.7z"/>
			</g>
			<g>
				<g>
					<path class="st1" d="M45,43h-1.5L32.6,29.4c0,0-4.3-4.4,0.2-8.8c4.5-4.4,10.9,0.9,10.9,0.9s5.4-4.9,10.5-1.1
						c5.2,3.8-1,10.4-1,10.4L45,43z"/>
					<path class="st1" d="M45,43h-1.5L32.6,29.4c0,0-4.3-4.4,0.2-8.8c4.5-4.4,10.9,0.9,10.9,0.9s5.4-4.9,10.5-1.1
						c5.2,3.8-1,10.4-1,10.4L45,43z"/>
					<path class="st2" d="M33.2,31.2c0.1-0.1,0.3-0.3,0.3-0.3l-1.7-2.6c-0.2-0.2-2.2-3.7,0.6-7.4l0.7-0.7c3.1-2.2,6-1.6,8.6-0.4
						c1,0.5,1.6,1,1.6,1l0.3,0.2l0.3-0.2c0,0,0.5-0.4,1.4-0.9c2-1.1,6.1-2.6,9.5,0.7c3.5,3.4,0.6,7.6-0.6,9.4l-0.8,1.2L45.1,43h1.5
						l8-11.5c0,0,0.2-0.2,0.5-0.7c1.3-1.9,4.8-7.4,0.5-11.4c-4-3.7-8.5-1.6-10.8-0.3c-0.9,0.5-1.4,0.9-1.5,1h0.6
						c0,0-0.7-0.5-1.8-1.1c-2.1-1.1-6.4-3-10.2,0.2l-0.1,0.1l-0.4,0.3c-5.8,5.5,1.6,11.8,1.7,11.9C32.9,31.6,33.1,31.3,33.2,31.2z"
						/>
					<path class="st3" d="M32.1,31.5c0.4,0,0.7,0.1,0.7,0.1s-0.2-0.2-0.3-0.3c-0.2-0.2-0.4-0.5-0.6-0.7c-0.3-0.3-0.5-0.7-0.9-1.2
						c-1.2-1.8-3.2-6,1-9.9l0,0c3.4-2.9,6.8-2.1,9.5-0.7c1,0.5,1.7,1,1.7,1l0.3,0.2l0.3-0.2c0,0,0.5-0.4,1.4-0.9
						c2.1-1.2,6.3-2.6,10,0.8c4,3.7,1.6,8.3,0.4,10.1l-0.5,0.7L46.5,43h1.2l8.3-12c0,0,0.2-0.3,0.5-0.7c1.4-2,4-7.1-0.6-11.3
						c-4.2-3.8-8.8-2.2-11.2-0.9c-0.9,0.5-1.5,1-1.5,1h0.6c0,0-0.8-0.5-1.9-1.1c-2.2-1.2-6.5-2.7-10.5,0.7l-0.1,0.1l0,0
						c-5.2,4.9-1.8,10.2-0.7,11.7c0.2,0.2,0.4,0.6,0.6,0.8c0.1,0.1,0.3,0.3,0.3,0.3C31.5,31.5,31.8,31.5,32.1,31.5z"/>
					<path class="st0" d="M33.8,30.6c0.2-0.1,0.4-0.2,0.4-0.2l-0.4-0.4c0,0-0.3-0.3-0.5-0.6c-0.7-0.8-2-2.7-1.9-4.8
						c0.1-1.5,0.8-2.9,2.3-4.1c3.7-3,9.4,1.4,9.4,1.5l0.3,0.3l0.3-0.3c0.2-0.2,5.2-4.5,9.5-1.5c2.7,1.9,2.5,4.4,1.8,6.2
						c-0.3,0.8-0.8,1.5-1.1,2.1l-0.2,0.2c-0.4,0.6-0.6,0.9-0.7,0.9c0,0-9,13.1-9,13.1h1.3l8.5-12.5c0,0,0.3-0.4,0.7-1l0.1-0.2
						c0.4-0.6,0.9-1.3,1.2-2.3c0.6-1.7,1.2-4.9-2.2-7.3c-5-3.5-10.7,1.5-10.8,1.5l0.7,0c-0.3-0.2-6.4-5-10.8-1.5
						c-1.7,1.4-2.6,3-2.7,4.8c-0.1,2.4,1.4,4.5,2.2,5.4c0.3,0.3,0.8,0.9,0.8,1C33.4,30.9,33.7,30.6,33.8,30.6z"/>
				</g>
				<path class="st3" d="M31.4,44.3v-4h9.2c-0.1,0.3-0.1,0.6,0,1c0.3,1.2,1.5,1.9,2.7,1.6c1.2-0.3,1.9-1.5,1.6-2.7
					c-0.2-0.7-0.7-1.3-1.4-1.6c0.7-0.5,1.1-1.4,0.9-2.3c-0.3-1.2-1.5-1.9-2.7-1.6c0,0,0,0,0,0c0.1-0.4,0.2-0.8,0.1-1.3
					c-0.3-1.2-1.5-1.9-2.7-1.6c-0.5,0.1-0.9,0.4-1.2,0.8c-0.3-1.2-1.5-1.9-2.7-1.6c-1,0.2-1.6,1-1.7,2c-0.4-0.3-0.9-0.5-1.4-0.5
					c-1.2,0-2.2,1-2.2,2.2c0,0.4,0.1,0.8,0.3,1.2c-0.1,0-0.2,0-0.2,0c-1.2,0-2.2,1-2.2,2.2c0,1.2,1,2.2,2.2,2.2c0.2,0,0.3,0,0.5-0.1
					v5.1h28.1v-1C58.6,44.3,32.3,44.3,31.4,44.3z"/>
				<path class="st0" d="M52.6,36.5c0.3,0,0.7,0,1,0.2c0.3,0.2,0.6,0.5,0.7,0.8c0.2-0.1,0.4-0.2,0.6-0.2c0.2,0,0.4,0.1,0.5,0.2
					c0.1-0.6,0.5-1.2,1.1-1.5c1.1-0.6,2.4-0.2,3,0.8L59.2,37c-0.5-0.8-1.6-1.1-2.4-0.6c-0.6,0.4-0.9,1-0.9,1.7l-0.4,0.1
					c-0.1-0.2-0.3-0.4-0.5-0.4c-0.3,0-0.5,0.2-0.5,0.4l-0.4,0c0-0.4-0.2-0.8-0.6-1c-0.4-0.2-0.9-0.2-1.2,0L52.6,36.5z"/>
				<polygon class="st2" points="43.3,38.5 43.3,38.1 36.7,35.1 30.4,38 30.4,38.5 31.4,38.5 31.4,44.3 42.3,44.3 42.3,43.4 
					42.3,38.5 				"/>
				<g>
					<path class="st0" d="M35,25.3h-0.2v-0.2h1.2v0.1h-0.2c0,0-0.2,0-0.2,0.2v1.2c0,0,1-1.1,1.2-1.2c0.1-0.1,0-0.2-0.1-0.2h-0.2
						v-0.1h1v0.1h-0.1c0,0-0.2,0-0.5,0.2c-0.2,0.3-1,1-1,1l1.4,1.6c0,0,0.1,0.1,0.2,0.1h0.1v0.2h-1.2v-0.2h0.2
						c0.2,0,0.1-0.2,0.1-0.2l-1.1-1.3l-0.1,0.1V28c0,0,0,0.2,0.2,0.2h0.2v0.1h-1.2v-0.1H35c0.2,0,0.2-0.2,0.2-0.2v-2.5
						C35.2,25.4,35,25.3,35,25.3"/>
					<path class="st0" d="M39,27.6c0-0.1,0-0.3,0-0.3s-0.2,0.1-0.4,0.1c-0.1,0-0.3,0.1-0.3,0.1s-0.3,0.2-0.1,0.4
						c0.1,0.2,0.3,0.1,0.3,0.1s0.1,0,0.3-0.1c0.1-0.1,0.2-0.1,0.2-0.1S39,27.7,39,27.6 M38.6,26.1c0.9-0.1,0.8,0.4,0.8,0.4v1.3
						c0,0.4,0.4,0.1,0.4,0.1l0.1,0.1c0,0,0,0.1-0.1,0.1c-0.1,0.1-0.2,0.2-0.3,0.2c-0.1,0-0.2-0.1-0.3-0.1c-0.1-0.1-0.1-0.2-0.1-0.2
						s-0.1,0.1-0.2,0.1c-0.2,0.1-0.4,0.2-0.7,0.2c-0.3-0.1-0.4-0.3-0.4-0.5c0-0.1,0.1-0.2,0.4-0.4c0.3-0.2,0.8-0.3,0.8-0.3l0-0.5
						c0,0,0-0.4-0.4-0.3c-0.4,0.1-0.4,0.5-0.4,0.5l-0.4,0C37.8,26.9,37.9,26.3,38.6,26.1"/>
					<path class="st0" d="M40,26.4h-0.1v-0.1c0,0,0.2,0,0.4,0c0.2,0,0.3-0.1,0.3-0.1h0.1v0.5c0,0,0.1-0.2,0.2-0.2
						c0.1-0.1,0.2-0.2,0.3-0.2c0.2-0.1,0.4,0.1,0.4,0.1l-0.2,0.3c0,0-0.2-0.2-0.4-0.1c-0.2,0.1-0.4,0.3-0.4,0.3V28
						c0,0,0,0.2,0.3,0.2h0.3v0.1h-1.3v-0.1c0,0,0.2,0,0.3,0c0,0,0-0.2,0-0.2v-1.4C40.1,26.4,40,26.4,40,26.4"/>
					<path class="st0" d="M41.5,26.4L41.5,26.4l-0.1-0.1c0,0,0.1,0,0.3,0c0.2,0,0.3-0.1,0.3-0.1h0V28c0,0,0,0.2,0.2,0.2h0.2v0.1
						h-1.1v-0.1h0.2c0.2,0,0.2-0.2,0.2-0.2v-1.4C41.7,26.4,41.5,26.4,41.5,26.4"/>
					<path class="st0" d="M41.9,25.6c0.1,0,0.2-0.1,0.2-0.2c0-0.1-0.1-0.2-0.2-0.2c-0.1,0-0.3,0.1-0.3,0.2
						C41.7,25.5,41.8,25.6,41.9,25.6"/>
					<path class="st0" d="M42.4,25.1V25c0,0,0.2,0,0.4-0.1c0.2,0,0.3-0.1,0.3-0.1h0v1.8c0,0,0.2-0.2,0.3-0.2c0.1,0,0.4-0.3,0.7-0.2
						c0.4,0.1,0.4,0.5,0.4,0.5v1.4c0,0,0,0.1,0.1,0.1c0.1,0,0.2,0,0.2,0v0.1h-0.9v-0.1c0,0,0,0,0.2,0c0.2,0,0.1-0.1,0.1-0.1v-1.3
						c0,0,0-0.5-0.3-0.4c-0.3,0-0.7,0.4-0.7,0.4V28c0,0,0,0.1,0.2,0.1c0.1,0,0.2,0,0.2,0v0.1h-1v-0.1c0,0,0,0,0.1,0
						c0.2,0,0.2-0.1,0.2-0.1v-2.8c0-0.2-0.1-0.2-0.1-0.2L42.4,25.1z"/>
					<path class="st0" d="M46.6,28.1c0,0,0.3-0.3,0.3-0.9c0-0.6-0.3-0.8-0.3-0.8s-0.3-0.3-0.8-0.3c-0.4,0-0.8,0.3-0.8,0.3
						s-0.3,0.2-0.3,0.8c0,0.5,0.2,0.8,0.2,0.8s0.3,0.4,0.8,0.4C46.4,28.4,46.6,28.1,46.6,28.1 M45.3,26.6c0,0,0.1-0.4,0.5-0.4
						c0.4,0,0.5,0.3,0.5,0.3s0.1,0.2,0.1,0.7c0,0.4-0.1,0.7-0.1,0.7s-0.1,0.3-0.5,0.3c-0.3,0-0.5-0.3-0.5-0.3s-0.1-0.2-0.1-0.7
						C45.3,26.7,45.3,26.6,45.3,26.6"/>
					<path class="st0" d="M46.9,28.4v-0.1c0,0,0,0,0.2,0c0.1,0,0.1-0.1,0.1-0.1v-1.5c0-0.1-0.1-0.1-0.1-0.1H47v-0.1
						c0,0,0.2,0,0.3-0.1c0.2-0.1,0.3-0.2,0.3-0.2h0c0,0,0,0.1,0,0.2v0.3c0,0,0.1-0.1,0.3-0.2c0.2-0.1,0.5-0.3,0.7-0.3
						c0.4,0,0.4,0.4,0.4,0.4s0.2-0.2,0.4-0.2c0.2-0.1,0.4-0.2,0.5-0.2c0.5,0,0.5,0.5,0.5,0.5v1.4c0,0,0,0.1,0.1,0.1
						c0,0.1,0.1,0.1,0.1,0.1h0.1v0.1h-0.9v-0.1h0.1c0,0,0.1,0,0.1-0.1c0.1,0,0.1-0.1,0.1-0.1v-1.4c0,0,0-0.3-0.4-0.3
						c-0.4,0-0.6,0.3-0.6,0.3V28c0,0,0,0.1,0,0.1c0,0,0.1,0.1,0.1,0.1h0.1v0.1h-1v-0.1h0.1c0,0,0.1,0,0.2-0.1c0,0,0-0.1,0-0.1v-1.3
						c0,0,0-0.3-0.3-0.4c-0.4,0-0.7,0.4-0.7,0.4V28c0,0,0,0.1,0,0.1c0,0,0.1,0,0.1,0h0.2v0.1L46.9,28.4z"/>
					<path class="st0" d="M51,27h1.4c0,0,0.1-0.9-0.9-0.9c-0.8,0-0.9,0.9-0.9,0.9s-0.2,1.3,0.8,1.4c0.6,0,1-0.4,1-0.4l-0.1-0.1
						c0,0-0.3,0.3-0.8,0.2C50.9,27.9,51,27,51,27 M51,26.9c0,0,0.1-0.6,0.5-0.6c0.5,0,0.5,0.6,0.5,0.6H51z"/>
					<path class="st0" d="M35,25.3h-0.2v-0.2h1.2v0.1h-0.2c0,0-0.2,0-0.2,0.2v1.2c0,0,1-1.1,1.2-1.2c0.1-0.1,0-0.2-0.1-0.2h-0.2
						v-0.1h1v0.1h-0.1c0,0-0.2,0-0.5,0.2c-0.2,0.3-1,1-1,1l1.4,1.6c0,0,0.1,0.1,0.2,0.1h0.1v0.2h-1.2v-0.2h0.2
						c0.2,0,0.1-0.2,0.1-0.2l-1.1-1.3l-0.1,0.1V28c0,0,0,0.2,0.2,0.2h0.2v0.1h-1.2v-0.1H35c0.2,0,0.2-0.2,0.2-0.2v-2.5
						C35.2,25.4,35,25.3,35,25.3"/>
					<path class="st0" d="M39,27.6c0-0.1,0-0.3,0-0.3s-0.2,0.1-0.4,0.1c-0.1,0-0.3,0.1-0.3,0.1s-0.3,0.2-0.1,0.4
						c0.1,0.2,0.3,0.1,0.3,0.1s0.1,0,0.3-0.1c0.1-0.1,0.2-0.1,0.2-0.1S39,27.7,39,27.6 M38.6,26.1c0.9-0.1,0.8,0.4,0.8,0.4v1.3
						c0,0.4,0.4,0.1,0.4,0.1l0.1,0.1c0,0,0,0.1-0.1,0.1c-0.1,0.1-0.2,0.2-0.3,0.2c-0.1,0-0.2-0.1-0.3-0.1c-0.1-0.1-0.1-0.2-0.1-0.2
						s-0.1,0.1-0.2,0.1c-0.2,0.1-0.4,0.2-0.7,0.2c-0.3-0.1-0.4-0.3-0.4-0.5c0-0.1,0.1-0.2,0.4-0.4c0.3-0.2,0.8-0.3,0.8-0.3l0-0.5
						c0,0,0-0.4-0.4-0.3c-0.4,0.1-0.4,0.5-0.4,0.5l-0.4,0C37.8,26.9,37.9,26.3,38.6,26.1"/>
					<path class="st0" d="M40,26.4h-0.1v-0.1c0,0,0.2,0,0.4,0c0.2,0,0.3-0.1,0.3-0.1h0.1v0.5c0,0,0.1-0.2,0.2-0.2
						c0.1-0.1,0.2-0.2,0.3-0.2c0.2-0.1,0.4,0.1,0.4,0.1l-0.2,0.3c0,0-0.2-0.2-0.4-0.1c-0.2,0.1-0.4,0.3-0.4,0.3V28
						c0,0,0,0.2,0.3,0.2h0.3v0.1h-1.3v-0.1c0,0,0.2,0,0.3,0c0,0,0-0.2,0-0.2v-1.4C40.1,26.4,40,26.4,40,26.4"/>
					<path class="st0" d="M41.5,26.4L41.5,26.4l-0.1-0.1c0,0,0.1,0,0.3,0c0.2,0,0.3-0.1,0.3-0.1h0V28c0,0,0,0.2,0.2,0.2h0.2v0.1
						h-1.1v-0.1h0.2c0.2,0,0.2-0.2,0.2-0.2v-1.4C41.7,26.4,41.5,26.4,41.5,26.4"/>
					<path class="st0" d="M41.9,25.6c0.1,0,0.2-0.1,0.2-0.2c0-0.1-0.1-0.2-0.2-0.2c-0.1,0-0.3,0.1-0.3,0.2
						C41.7,25.5,41.8,25.6,41.9,25.6"/>
					<path class="st0" d="M42.4,25.1V25c0,0,0.2,0,0.4-0.1c0.2,0,0.3-0.1,0.3-0.1h0v1.8c0,0,0.2-0.2,0.3-0.2c0.1,0,0.4-0.3,0.7-0.2
						c0.4,0.1,0.4,0.5,0.4,0.5v1.4c0,0,0,0.1,0.1,0.1c0.1,0,0.2,0,0.2,0v0.1h-0.9v-0.1c0,0,0,0,0.2,0c0.2,0,0.1-0.1,0.1-0.1v-1.3
						c0,0,0-0.5-0.3-0.4c-0.3,0-0.7,0.4-0.7,0.4V28c0,0,0,0.1,0.2,0.1c0.1,0,0.2,0,0.2,0v0.1h-1v-0.1c0,0,0,0,0.1,0
						c0.2,0,0.2-0.1,0.2-0.1v-2.8c0-0.2-0.1-0.2-0.1-0.2L42.4,25.1z"/>
					<path class="st0" d="M46.6,28.1c0,0,0.3-0.3,0.3-0.9c0-0.6-0.3-0.8-0.3-0.8s-0.3-0.3-0.8-0.3c-0.4,0-0.8,0.3-0.8,0.3
						s-0.3,0.2-0.3,0.8c0,0.5,0.2,0.8,0.2,0.8s0.3,0.4,0.8,0.4C46.4,28.4,46.6,28.1,46.6,28.1 M45.3,26.6c0,0,0.1-0.4,0.5-0.4
						c0.4,0,0.5,0.3,0.5,0.3s0.1,0.2,0.1,0.7c0,0.4-0.1,0.7-0.1,0.7s-0.1,0.3-0.5,0.3c-0.3,0-0.5-0.3-0.5-0.3s-0.1-0.2-0.1-0.7
						C45.3,26.7,45.3,26.6,45.3,26.6"/>
					<path class="st0" d="M46.9,28.4v-0.1c0,0,0,0,0.2,0c0.1,0,0.1-0.1,0.1-0.1v-1.5c0-0.1-0.1-0.1-0.1-0.1H47v-0.1
						c0,0,0.2,0,0.3-0.1c0.2-0.1,0.3-0.2,0.3-0.2h0c0,0,0,0.1,0,0.2v0.3c0,0,0.1-0.1,0.3-0.2c0.2-0.1,0.5-0.3,0.7-0.3
						c0.4,0,0.4,0.4,0.4,0.4s0.2-0.2,0.4-0.2c0.2-0.1,0.4-0.2,0.5-0.2c0.5,0,0.5,0.5,0.5,0.5v1.4c0,0,0,0.1,0.1,0.1
						c0,0.1,0.1,0.1,0.1,0.1h0.1v0.1h-0.9v-0.1h0.1c0,0,0.1,0,0.1-0.1c0.1,0,0.1-0.1,0.1-0.1v-1.4c0,0,0-0.3-0.4-0.3
						c-0.4,0-0.6,0.3-0.6,0.3V28c0,0,0,0.1,0,0.1c0,0,0.1,0.1,0.1,0.1h0.1v0.1h-1v-0.1h0.1c0,0,0.1,0,0.2-0.1c0,0,0-0.1,0-0.1v-1.3
						c0,0,0-0.3-0.3-0.4c-0.4,0-0.7,0.4-0.7,0.4V28c0,0,0,0.1,0,0.1c0,0,0.1,0,0.1,0h0.2v0.1L46.9,28.4z"/>
					<path class="st0" d="M51,27h1.4c0,0,0.1-0.9-0.9-0.9c-0.8,0-0.9,0.9-0.9,0.9s-0.2,1.3,0.8,1.4c0.6,0,1-0.4,1-0.4l-0.1-0.1
						c0,0-0.3,0.3-0.8,0.2C50.9,27.9,51,27,51,27 M51,26.9c0,0,0.1-0.6,0.5-0.6c0.5,0,0.5,0.6,0.5,0.6H51z"/>
				</g>
			</g>
			<g>
				<path class="st4" d="M65.1,19.4h-1.5v-1.3h10.2v1.2h-1.7c0,0-1.8,0.1-1.8,1.5v9.8c0,0,8.5-8.8,9.7-9.9c1.2-1.1-0.1-1.5-0.6-1.5
					h-1.3v-1.2h8.7v1.2h-1.1c0,0-1.8-0.3-3.9,2c-2.1,2.3-7.9,8.4-7.9,8.4l11.9,13.3c0,0,0.8,0.8,1.7,0.8h1.1v1.2H78.2v-1.1h1.3
					c1.7,0,0.8-1.5,0.8-1.5l-9-10.5l-1,0.8v9.7c0,0,0.1,1.5,1.7,1.5h1.8v1.1H63.7v-1.1H65c1.8,0,1.7-1.4,1.7-1.4V20.9
					C66.7,19.7,65.1,19.4,65.1,19.4"/>
				<path class="st4" d="M98.6,38.5c0-1.2,0.1-2.3,0.1-2.3s-1.8,0.4-3,1c-1.2,0.5-2.3,1.4-2.3,1.4s-2.3,1.3-1.1,3.4
					c0.8,1.5,2.6,1.2,2.6,1.2s1.2-0.2,2.3-1c1-0.7,1.5-1.3,1.5-1.3S98.5,39.8,98.6,38.5 M95.4,26.3c7.1-1.2,6.8,3.8,6.8,3.8v10.7
					c0,3.6,2.9,1.2,2.9,1.2l0.5,0.6c0,0-0.4,0.6-1.1,1.3c-0.6,0.7-1.5,1.5-2.6,1.4c-0.8,0-1.6-0.6-2.2-1.2c-0.7-0.8-0.9-1.7-0.9-1.7
					s-0.5,0.7-1.5,1.5c-1.3,0.9-3.4,1.9-5.9,1.4c-2.6-0.5-3.3-2.6-3.1-4.4c0.1-0.7,0.9-2.1,3.2-3.3c2.8-1.4,7.1-2.6,7.1-2.6l0.3-4.3
					c0,0,0.2-3.1-3.1-2.7c-3.3,0.4-3.5,4.5-3.5,4.5l-3.6,0.4C88.7,32.8,89.1,27.4,95.4,26.3"/>
				<path class="st4" d="M106.7,28.9l-1.1-0.1v-1.1c0,0,1.8-0.1,3.3-0.4c1.5-0.3,2.3-1,2.3-1l0.5,0v4.2c0,0,1.2-1.3,1.9-1.9
					c0.8-0.7,1.8-1.8,2.6-2.1c1.9-0.7,3.3,1,3.3,1l-1.3,2.8c0,0-2.2-1.5-3.4-0.8c-1.6,0.9-3.1,2.9-3.1,2.9V42c0,0-0.2,1.9,2.1,1.9
					h2.5v1h-10.8v-1c0,0,1.5,0.2,2.2-0.3c0.5-0.3,0.4-1.7,0.4-1.7V30.4C108.1,28.9,106.7,28.9,106.7,28.9"/>
				<g>
					<path class="st4" d="M119.9,29.1l-0.8-0.1v-1.2c0,0,1.2,0.1,2.8-0.2c1.5-0.3,2.4-0.9,2.4-0.9h0.4v15.9c0,0-0.1,1.4,1.4,1.4h1.5
						v1h-9v-1h1.3c1.6,0,1.5-1.6,1.5-1.6V30.5C121.4,29.1,119.9,29.1,119.9,29.1"/>
					<path class="st4" d="M123.1,22c1.2,0,2.1-0.9,2.1-2c0-1.1-0.9-2-2.1-2c-1.1,0-2,0.9-2,2C121,21.2,122,22,123.1,22"/>
				</g>
				<path class="st4" d="M127.5,17.5v-1c0,0,1.4-0.2,3-0.6c1.6-0.3,2.6-1,2.6-1h0.4v14.9c0,0,1.7-1.3,2.6-1.8
					c0.9-0.5,3.2-2.3,5.9-1.7c3.2,0.6,3.5,4.4,3.5,4.4v11.8c0,0-0.2,1.2,0.9,1.2c0.9,0,1.4,0.1,1.4,0.1v0.9h-7.9v-0.9
					c0,0,0-0.1,1.3-0.1c1.4,0,1.1-1.4,1.1-1.4V31.7c0,0,0.3-3.7-2.8-3.4c-2.8,0.3-5.9,3.5-5.9,3.5v10.6c0,0,0.2,1.3,1.4,1.3
					c1.3,0,1.3,0.1,1.3,0.1v1h-8.5v-1c0,0-0.1-0.1,1.3-0.1s1.4-1.3,1.4-1.3V19.2c0-1.7-0.9-1.6-0.9-1.6L127.5,17.5z"/>
				<path class="st4" d="M162.8,42.8c0,0,2.4-2.2,2.4-7.3c0-4.8-2.3-7-2.3-7s-2.6-2.7-6.4-2.7c-3.8,0-6.5,2.8-6.5,2.8
					s-2.6,1.8-2.5,6.8c0.1,4.6,1.7,6.6,1.7,6.6s2.1,3.2,6.9,3.2C161,45.3,162.8,42.8,162.8,42.8 M152,30.4c0,0,1.1-3,4.4-3
					c3.2,0,4.3,2.6,4.3,2.6s1.1,1.8,0.9,5.6c-0.2,3.8-0.9,5.5-0.9,5.5s-0.8,2.8-4.6,2.7c-2.9-0.1-3.9-2.7-3.9-2.7s-1-1.2-1-5.7
					C151.2,31.4,152,30.4,152,30.4"/>
				<path class="st4" d="M165.2,44.9v-1.1c0,0,0.4,0.2,1.5-0.1c1.2-0.3,1.1-1.4,1.1-1.4V29.9c0-1-0.8-1-0.8-1l-1.3,0v-0.9
					c0,0,1.3-0.2,2.7-0.7c1.4-0.5,2.3-1.3,2.3-1.3l0.4,0c0,0-0.2,0.7-0.2,1.5c0,0.9,0,2.7,0,2.7s1-0.9,2.3-1.8
					c1.8-1.1,4.1-2.5,5.4-2.3c3.3,0.1,3.9,3.7,3.9,3.7s1.8-1.2,3-1.9c1.5-0.8,3.1-1.5,4.4-1.5c4,0,4.2,4.4,4.2,4.4v11.7
					c0,0,0.1,0.7,0.4,1.2c0.3,0.4,0.8,0.4,0.8,0.4h1v1h-7.8V44h1.1c0,0,0.5,0,0.9-0.5c0.4-0.5,0.3-1.2,0.3-1.2V31.1
					c0,0,0.3-2.6-3-2.3c-3.5,0.2-5,2.9-5,2.9v10.5c0,0-0.1,0.7,0.2,1.1c0.3,0.5,0.8,0.6,0.8,0.6h1v1h-8v-1h1.2c0,0,0.8-0.1,1.2-0.5
					c0.4-0.4,0.3-1.3,0.3-1.3V31.4c0,0,0.4-2.5-2.7-2.8c-3-0.3-6,3.6-6,3.6v9.9c0,0-0.1,0.7,0.3,1.1c0.3,0.4,1.1,0.5,1.1,0.5h1.2
					v1.1L165.2,44.9z"/>
				<path class="st4" d="M199.9,33.7h11.7c0,0,0.6-7.9-7.6-7.6c-6.7,0.3-7.7,7.5-7.7,7.5s-1.6,10.6,6.8,11.7
					c4.9,0.6,8.3-3.4,8.3-3.4l-0.7-0.6c0,0-2.4,2.7-7,1.4C198.5,41,199.9,33.7,199.9,33.7 M199.9,32.3c0,0,0.3-4.8,4.2-4.8
					c3.9,0,3.8,4.8,3.8,4.8H199.9z"/>
			</g>
		</g>
		<g>
			<path d="M45.8,144.1c0.2-1,0.3-1.6,0.2-1.8c-0.1-0.1-0.1-0.1-0.2-0.1h-1.2c-0.3,0-0.5-0.2-0.6-0.5c-0.1-0.3,0-0.6,0.1-0.9
				l1.4-2.8c0-0.1,0-0.1-0.1-0.1h-1.1c-0.2,0-0.3-0.1-0.5-0.2c-0.1-0.1-0.1-0.3-0.2-0.5c0-0.2,0.1-0.4,0.2-0.5
				c0.1-0.1,0.3-0.2,0.5-0.2h2.1c0.2,0,0.4,0.2,0.6,0.5c0.1,0.3,0.1,0.6,0,0.9l-1.4,2.8c-0.1,0.1,0,0.2,0.2,0.2h0.7
				c0.2,0,0.4,0.1,0.6,0.4c0.1,0.2,0.1,0.4,0.2,0.6c0,1.5-0.3,3-1,4.6c0.7,0.8,1.9,1.2,3.7,1.2h4.3c0.2,0,0.4,0.1,0.5,0.2
				c0.1,0.1,0.2,0.3,0.2,0.5c0,0.2-0.1,0.4-0.2,0.5c-0.1,0.2-0.3,0.2-0.5,0.2h-3.8c-0.9,0-1.7-0.1-2.5-0.3c-0.8-0.1-1.6-0.6-2.2-1.2
				c-0.7,1.2-1.2,1.8-1.5,1.8c-0.2,0-0.3-0.1-0.5-0.2c-0.1-0.2-0.2-0.3-0.2-0.5c0-0.2,0.1-0.4,0.2-0.6c0.4-0.5,0.8-1,1.1-1.5
				l-0.3-0.6c-0.7-1.3-0.9-2.2-0.8-2.5c0-0.2,0.1-0.3,0.3-0.4c0.2-0.1,0.3-0.1,0.5,0c0.2,0.1,0.3,0.2,0.4,0.5
				c0.2,0.7,0.5,1.3,0.7,1.7L45.8,144.1z M48,139.8c0-0.2,0-0.4,0.2-0.5c0.1-0.1,0.3-0.2,0.4-0.2c0.2,0,0.3,0.1,0.4,0.2
				c0.1,0.1,0.2,0.3,0.2,0.5v5.5h1.2v-7.1l-2.3,0.1c-0.2,0-0.3-0.1-0.4-0.2c-0.1-0.1-0.2-0.3-0.2-0.5c0-0.2,0.1-0.4,0.2-0.5
				c0.1-0.1,0.3-0.2,0.4-0.2c2.5,0,4.4-0.3,5.7-0.6c0.2,0,0.3,0,0.5,0.1c0.1,0.1,0.2,0.2,0.3,0.4c0,0.2,0,0.4,0,0.6
				c-0.1,0.3-1.1,0.6-2.8,0.7h-0.1v2.5h2.3c0.2,0,0.3,0.1,0.4,0.2c0.1,0.1,0.2,0.3,0.2,0.5c0,0.2-0.1,0.4-0.2,0.5
				c-0.1,0.2-0.3,0.2-0.4,0.2h-2.3v3.2h2.5c0.2,0,0.3,0.1,0.4,0.2c0.1,0.1,0.2,0.3,0.2,0.5c0,0.2,0,0.4-0.2,0.5
				c-0.1,0.2-0.3,0.2-0.4,0.2h-6.6c-0.2,0-0.3-0.1-0.4-0.2c-0.1-0.1-0.2-0.3-0.2-0.5c0-0.2,0.1-0.4,0.2-0.5c0.1-0.1,0.3-0.2,0.4-0.2
				H48V139.8z"/>
			<path d="M68.6,143.5c-0.2,0-0.3,0-0.4-0.1c-0.1-0.1-0.2-0.2-0.2-0.4c0-0.2,0-0.3,0.1-0.4c0.1-0.1,0.2-0.2,0.4-0.2h0.2l0.8-1.3
				c-0.4-0.6-0.8-1-1.2-1.5c-0.1-0.1-0.2-0.2-0.3-0.4c0-0.2,0-0.3,0.1-0.5c0.1-0.1,0.2-0.2,0.3-0.3c0.1,0,0.3,0,0.4,0.1
				c0.2-0.6,0.4-1.2,0.6-2c0.1-0.2,0.2-0.3,0.3-0.4c0.1-0.1,0.2-0.1,0.4,0c0.1,0.1,0.2,0.2,0.3,0.3c0.1,0.3-0.2,1.3-0.8,2.8l0.4,0.6
				c0.3-0.6,0.5-1.2,0.6-1.9c0.1-0.2,0.1-0.3,0.3-0.4c0.1-0.1,0.2-0.1,0.4,0c0.1,0,0.2,0.1,0.3,0.3l0,0.3c-0.2,1-0.7,2.3-1.7,4
				l0.9-0.1c-0.1-0.4-0.2-0.7-0.2-0.8c0-0.1,0.1-0.2,0.2-0.3c0.1-0.1,0.3-0.1,0.4,0c0.1,0.1,0.2,0.2,0.3,0.3
				c0.2,0.5,0.4,1.2,0.5,1.9c0,0.2,0,0.3-0.1,0.5c-0.1,0.1-0.2,0.2-0.3,0.3c-0.1,0-0.3,0-0.4-0.1c-0.1-0.1-0.2-0.3-0.2-0.6l-0.6,0.1
				v5.8c0,0.2,0,0.3-0.2,0.5c-0.1,0.1-0.2,0.2-0.4,0.2c-0.1,0-0.3-0.1-0.4-0.2c-0.1-0.1-0.1-0.3-0.1-0.5v-5.7L68.6,143.5z
				 M68.6,144.2c0.1-0.1,0.2-0.2,0.4-0.2c0.2,0,0.3,0,0.4,0.2c0.1,0.1,0.1,0.3,0.1,0.5c0,1.1-0.1,2.4-0.3,3.8c0,0.2-0.1,0.3-0.2,0.4
				c-0.1,0.1-0.3,0.1-0.4,0.1c-0.1,0-0.3-0.1-0.3-0.3c-0.1-0.1-0.1-0.3-0.1-0.5c0.2-1.5,0.3-2.7,0.3-3.6
				C68.4,144.5,68.4,144.3,68.6,144.2z M70.9,144.1c0.1-0.1,0.2-0.2,0.3-0.3c0.1,0,0.3,0,0.4,0.1c0.1,0.1,0.2,0.2,0.2,0.4l0.2,1.4
				c0.1,0.6,0.1,1.2,0.2,1.7c0,0.2,0,0.4-0.1,0.5c-0.1,0.1-0.2,0.2-0.3,0.2c-0.1,0-0.3-0.1-0.4-0.2c-0.1-0.1-0.2-0.3-0.2-0.5
				c0-1-0.1-2-0.3-2.9C70.8,144.5,70.8,144.3,70.9,144.1z M74.5,148c0.1,0.1,0.1,0.2,0.2,0.3c0,0.2,0,0.4,0,0.5
				c-0.1,0.2-0.2,0.3-0.4,0.4c-0.6,0.2-1.3,0.4-2.2,0.5c-0.2,0-0.3,0-0.5-0.1c-0.1-0.1-0.2-0.2-0.2-0.4c0-0.2,0-0.3,0.1-0.5
				c0.1-0.2,0.3-0.2,0.4-0.3c0.7-0.1,1.3-0.2,1.7-0.4H73c-0.2,0-0.3-0.1-0.4-0.3c-0.1-0.2-0.2-0.4-0.2-0.6v-3.3c0-0.2,0-0.4,0.2-0.5
				c0.1-0.2,0.3-0.2,0.5-0.2h5.2c0.2,0,0.4,0.1,0.6,0.2c0.1,0.1,0.2,0.3,0.2,0.5v3.3c0,0.2-0.1,0.5-0.2,0.6
				c-0.2,0.2-0.3,0.3-0.5,0.3h-0.6c1.1,0.2,1.7,0.5,1.8,0.7c0.1,0.1,0.1,0.3,0.1,0.5c-0.1,0.2-0.1,0.3-0.3,0.4
				c-0.2,0.1-0.3,0.1-0.5,0c-0.8-0.3-1.5-0.4-2-0.5c-0.2,0-0.3-0.1-0.4-0.2c-0.1-0.1-0.1-0.3-0.1-0.5c0-0.2,0.1-0.4,0.2-0.5H74.5z
				 M72.6,142.7c-0.2,0-0.3-0.1-0.4-0.2c-0.1-0.2-0.2-0.4-0.2-0.6v-1.7c0-0.2,0.1-0.3,0.2-0.5c0.1-0.2,0.3-0.2,0.4-0.2h5.9
				c0.2,0,0.4,0.1,0.5,0.2c0.1,0.1,0.2,0.3,0.2,0.5v1.7c0,0.2-0.1,0.4-0.2,0.6c-0.1,0.2-0.3,0.3-0.5,0.3H72.6z M75.1,137.7h-2.6
				c-0.1,0-0.2,0-0.3-0.1c-0.1-0.1-0.1-0.2-0.1-0.4c0-0.1,0-0.3,0.1-0.3c0.1-0.1,0.2-0.1,0.3-0.1h2.6v-0.1c0-0.2,0-0.4,0.1-0.5
				c0.1-0.1,0.2-0.2,0.4-0.2c0.2,0,0.3,0.1,0.4,0.2c0.1,0.1,0.2,0.3,0.2,0.5v0.1h2.6c0.1,0,0.2,0,0.3,0.1c0.1,0.1,0.1,0.2,0.1,0.4
				c0,0.1,0,0.3-0.1,0.3c-0.1,0.1-0.2,0.2-0.3,0.2h-2.6v0.5h2.3c0.1,0,0.2,0,0.3,0.1c0.1,0.1,0.1,0.2,0.1,0.4c0,0.1,0,0.2-0.1,0.3
				c-0.1,0.1-0.2,0.2-0.3,0.2h-5.6c-0.1,0-0.2,0-0.3-0.1c-0.1-0.1-0.1-0.2-0.1-0.4c0-0.1,0-0.3,0.1-0.4c0.1-0.1,0.2-0.1,0.3-0.1h2.2
				V137.7z M76,140.3h-0.7L75,141l-0.4,0.5c-0.8,0.4-1.4,0.5-1.6,0.2v0l0,0.1l0.1,0.1h5l0.1-0.1l0-0.1v-0.1h-1.5
				c-0.2,0-0.4-0.1-0.5-0.3c-0.2-0.2-0.2-0.4-0.2-0.7V140.3z M74.4,140.3h-1.2l-0.1,0.1l0,0.1v0.4c0.1-0.1,0.2-0.1,0.3-0.1
				C73.8,140.8,74.2,140.6,74.4,140.3L74.4,140.3z M77.9,144.5v-0.3l0-0.1l-0.1-0.1h-4l-0.1,0.1c0,0.1-0.1,0.1,0,0.2v0.3H77.9z
				 M77.9,145.8v-0.5h-4.4v0.5H77.9z M73.5,146.6v0.3l0.1,0.1l0.1,0.1h4l0.1-0.1l0.1-0.1v-0.3H73.5z M78.3,140.8v-0.2l0-0.1
				l-0.1-0.1H77v0.1c0,0.1,0,0.2,0.1,0.3c0.1,0.1,0.1,0.1,0.2,0.1H78.3z"/>
			<path d="M102.7,145.7h0.7c0.2,0,0.3,0.1,0.5,0.2c0.1,0.1,0.1,0.3,0.1,0.5c0,0.2,0,0.4-0.1,0.5c-0.1,0.1-0.3,0.2-0.5,0.2h-0.9
				c-0.1,0.8-0.3,1.4-0.4,1.7c-0.2,0.5-0.7,0.7-1.6,0.7c-1.1,0-1.9-0.1-2.1-0.5c-0.1-0.2-0.1-0.3-0.1-0.6c0-0.2,0.1-0.4,0.2-0.5
				c0.1-0.1,0.3-0.2,0.6-0.1c0.7,0.2,1.2,0.2,1.5,0.1c0.2,0,0.3-0.2,0.4-0.4l0.1-0.5h-6.7c-0.3,0-0.6-0.1-0.8-0.3
				c-0.2-0.2-0.3-0.5-0.3-0.8l0.6-3.6h-0.7c-0.2,0-0.3-0.1-0.4-0.2c-0.1-0.1-0.2-0.3-0.2-0.5c0-0.2,0.1-0.4,0.2-0.5
				c0.1-0.1,0.3-0.2,0.4-0.2h0.9c0.2-1.4,0.3-2.5,0.3-3.3c0-0.4,0.1-0.7,0.3-0.9c0.2-0.2,0.4-0.3,0.7-0.3h6.7c0.3,0,0.6,0.1,0.8,0.3
				c0.2,0.2,0.3,0.5,0.3,1l-0.2,3.2h0.5c0.2,0,0.3,0,0.4,0.2c0.1,0.1,0.2,0.3,0.2,0.5c0,0.2-0.1,0.4-0.2,0.5
				c-0.1,0.1-0.3,0.2-0.4,0.2h-0.6L102.7,145.7z M95.4,142.5l-0.4,2.6c0,0.2,0,0.3,0.1,0.4c0.1,0.1,0.2,0.1,0.3,0.1h6.1
				c0.2-1.4,0.3-2.5,0.3-3.2H95.4z M101.9,141.1c0.1-1.2,0.1-2.1,0.1-2.5c0-0.2,0-0.4-0.1-0.5c-0.1-0.1-0.2-0.1-0.4-0.1h-5.5
				c-0.1,0-0.2,0-0.2,0.1c0,0.1-0.1,0.2-0.1,0.4c0,0.7-0.1,1.6-0.2,2.7H101.9z M97.6,143.3c0-0.2,0.1-0.3,0.2-0.5
				c0.1-0.1,0.3-0.2,0.4-0.2c0.2,0,0.3,0.1,0.4,0.3c0.6,1,0.9,1.7,0.8,2c0,0.2-0.1,0.3-0.3,0.4c-0.2,0.1-0.3,0.1-0.4,0
				c-0.2-0.1-0.3-0.2-0.4-0.4c-0.2-0.4-0.4-0.8-0.6-1.2C97.6,143.7,97.5,143.5,97.6,143.3z M97.6,138.8c0-0.2,0.1-0.3,0.2-0.5
				c0.1-0.1,0.3-0.2,0.4-0.2c0.2,0,0.3,0.1,0.4,0.3c0.6,1,0.8,1.6,0.8,1.9c0,0.2-0.1,0.3-0.3,0.4c-0.2,0.1-0.3,0.1-0.5,0.1
				c-0.2-0.1-0.3-0.2-0.4-0.4c-0.2-0.4-0.4-0.8-0.6-1.1C97.6,139.2,97.6,139,97.6,138.8z"/>
			<path d="M120,146.3c-1,0.6-1.7,0.8-2,0.6c-0.1-0.1-0.2-0.3-0.3-0.5c-0.1-0.5,0.1-0.7,0.5-0.8c1.4-0.5,2.4-1.2,2.9-2.1
				c-0.3-0.3-0.4-0.7-0.4-1.1v-1.7h-1.8c-0.1,0-0.2,0-0.3,0.1c-0.1,0.1-0.1,0.2-0.1,0.3v0.8c0,0.2-0.1,0.4-0.2,0.5
				c-0.1,0.1-0.2,0.2-0.4,0.2c-0.2,0-0.3-0.1-0.4-0.2c-0.1-0.1-0.2-0.3-0.2-0.5v-1.3c0-0.3,0.1-0.6,0.3-0.9c0.2-0.3,0.5-0.4,0.7-0.3
				h1.2l-0.3-0.5c-0.1-0.1-0.2-0.3-0.2-0.5c0-0.1,0-0.2,0.1-0.3c-0.6,0-0.9-0.1-1-0.2c-0.1-0.1-0.1-0.3-0.1-0.5
				c0-0.2,0.1-0.3,0.2-0.5c0.1-0.1,0.3-0.2,0.4-0.2c3.6,0.1,6.4,0,8.3-0.4c0.2,0,0.3,0,0.4,0.1c0.1,0.1,0.2,0.2,0.2,0.4
				c0,0.2,0,0.4-0.1,0.5c0,0.1-0.3,0.3-0.9,0.4h0c0.1,0.1,0.2,0.3,0.2,0.5c0,0.2,0,0.4-0.2,0.6l-0.5,0.6h1.2c0.2,0,0.4,0,0.6,0.2
				c0.2,0.2,0.3,0.3,0.3,0.5c0.2,0.4,0.1,1.1-0.3,2c-0.1,0.2-0.2,0.4-0.3,0.4c-0.1,0-0.3,0-0.4,0c0.5,0.8,0.7,1.3,0.6,1.6
				c0,0.2-0.1,0.3-0.3,0.4c-0.1,0.1-0.3,0.1-0.4,0.1c-0.2-0.1-0.3-0.2-0.4-0.4c-0.5-1-0.9-1.7-1.2-2.1c0,0.5-0.1,1-0.4,1.5l-0.2,0.2
				c-0.3,0.2-1.3,0.4-3,0.3l-0.3,0.6h4.3c0.3,0,0.5,0.1,0.6,0.2c0.1,0.1,0.2,0.4,0.2,0.6c0,0.3-0.3,0.7-0.8,1.2l-1.7,1.2
				c0.9,0.3,2,0.4,3.5,0.3c0.2,0,0.4,0.1,0.5,0.2c0.1,0.2,0.2,0.3,0.2,0.5c0,0.2-0.1,0.4-0.2,0.5c-0.1,0.1-0.3,0.2-0.5,0.2H128
				c-1.8,0.1-3.5-0.3-4.9-1.1c-1.6,0.6-3.4,1-5.1,1.1c-0.2,0-0.3-0.1-0.4-0.3c-0.1-0.2-0.1-0.3-0.1-0.5c0-0.2,0.1-0.4,0.2-0.5
				c0.1-0.1,0.3-0.1,0.4-0.1c1.5-0.1,2.7-0.3,3.7-0.6c-0.6-0.5-1-1-1.4-1.5L120,146.3z M119.7,141.1c0.1-0.1,0.3-0.1,0.4,0
				c0.1,0.1,0.2,0.2,0.3,0.3c0.1,0.2,0,0.4,0,0.6c-0.3,0.6-0.5,1.1-0.9,1.5c-0.4,0.5-0.7,0.7-0.9,0.7c-0.1,0-0.3-0.1-0.4-0.2
				c-0.1-0.2-0.1-0.3-0.1-0.5c0-0.2,0.1-0.3,0.3-0.5c0.4-0.4,0.7-0.9,1-1.6C119.4,141.3,119.5,141.2,119.7,141.1z M122.6,139.3
				l-0.3-0.5c-0.1-0.2-0.2-0.3-0.2-0.5c0-0.1,0-0.2,0.1-0.2h-1.8c0.4,0.5,0.6,0.9,0.6,1.2l0,0.1H122.6z M123.2,147.1
				c1.2-0.5,1.9-0.9,2.1-1.2v-0.1c0,0-0.1-0.1-0.2-0.1h-3.3l0.6,0.7L123.2,147.1z M127.2,141.7l0.1-0.3c0.2-0.3,0.2-0.4,0.2-0.5
				c-0.1-0.2-0.2-0.3-0.3-0.3h-3.7l0.1,0.1c0.5,0.5,0.8,0.9,0.8,1.2c0,0.2-0.1,0.3-0.2,0.4c-0.1,0.1-0.3,0.2-0.4,0.2
				c-0.1,0-0.3-0.1-0.4-0.3l-0.3-0.3c-0.3-0.3-0.4-0.6-0.4-0.7c0-0.2,0-0.3,0.1-0.5l0.1-0.1H122v1.2c0,0.2,0.1,0.4,0.2,0.5
				c0.1,0.1,0.3,0.2,0.4,0.2c1.2,0,1.9,0,2-0.2c0.1-0.1,0.2-0.2,0.2-0.3l0,0c0-0.3,0.1-0.5,0.3-0.6c0.1-0.1,0.3-0.1,0.4-0.1
				c0.1,0,0.2,0.1,0.3,0.2c0-0.2,0-0.4,0.2-0.6c0.1-0.1,0.2-0.2,0.4-0.2c0.2,0,0.3,0.1,0.4,0.3L127.2,141.7z M124.9,139.3l0.2-0.2
				c0.4-0.5,0.8-0.9,1-1.3l0,0l-2.1,0.1l-0.8,0c0.4,0.6,0.6,1,0.5,1.3H124.9z"/>
			<path d="M148.9,139.1c-0.5,1.5-0.9,2.3-1.2,2.3c-0.2,0-0.4-0.1-0.6-0.3v6.8c0,0.3-0.1,0.6-0.3,0.8c-0.2,0.2-0.4,0.3-0.7,0.3h-2.9
				c-0.3,0-0.5-0.1-0.6-0.3c-0.2-0.3-0.3-0.5-0.3-0.8v-9c0-0.3,0.1-0.5,0.2-0.7c0.2-0.2,0.4-0.3,0.6-0.3h0.8v0
				c0.2-1.1,0.4-1.7,0.6-1.8c0.1-0.1,0.3-0.2,0.4-0.1c0.2,0,0.3,0.1,0.4,0.3l0.1,0.1c0,0.2,0,0.7-0.2,1.5h0.9c0.3,0,0.5,0.1,0.7,0.3
				c0.2,0.2,0.3,0.4,0.3,0.7v1.3c0.6-1.2,0.9-2.4,1-3.6c0-0.2,0.1-0.4,0.2-0.5c0.1-0.1,0.3-0.2,0.4-0.2c0.2,0,0.3,0.1,0.4,0.3
				c0.1,0.2,0.1,0.4,0.1,0.6l-0.1,0.8h2.7c0.3,0,0.5,0,0.7,0.1c0.2,0.1,0.3,0.3,0.4,0.5c0.1,0.3,0.1,0.6,0.1,1
				c0,2.6-0.1,4.7-0.2,6.3c-0.1,1.1-0.3,1.9-0.5,2.4c-0.2,0.5-0.5,0.8-0.9,1.1c-0.3,0.2-0.8,0.3-1.4,0.3c-0.6,0-1.2-0.1-1.8-0.4
				c-0.2-0.1-0.3-0.2-0.4-0.4c-0.1-0.2-0.1-0.4,0-0.6c0.1-0.4,0.4-0.6,0.8-0.5c1.2,0.4,1.9,0.4,2.3,0.1c0.2-0.2,0.4-0.5,0.5-1
				c0.2-0.6,0.3-2.6,0.3-6c0-0.9,0-1.4-0.1-1.5c-0.1-0.1-0.2-0.2-0.4-0.2L148.9,139.1L148.9,139.1z M145.9,142.8v-3.1l-0.1-0.2
				c-0.1-0.1-0.1-0.1-0.2-0.1h-1.9c-0.1,0-0.1,0-0.2,0.1c0,0.1-0.1,0.1-0.1,0.2v3.1H145.9z M143.5,144.2v3.2l0.1,0.2
				c0,0.1,0.1,0.1,0.1,0.1h1.9l0.1-0.1l0.1-0.2v-3.2H143.5z M148.6,140.9c0-0.2,0.1-0.3,0.3-0.4c0.2-0.1,0.3-0.1,0.5-0.1
				c0.2,0.1,0.3,0.2,0.4,0.4c0.4,1,0.7,2.2,1.1,3.5c0.2,0.7,0.2,1.1,0.1,1.3c-0.1,0.2-0.2,0.2-0.4,0.3c-0.2,0-0.3,0-0.4-0.1
				c-0.1-0.1-0.2-0.3-0.3-0.5c-0.3-1.4-0.7-2.7-1.2-3.9C148.5,141.2,148.5,141,148.6,140.9z"/>
			<path d="M168,140.1h-0.9c-0.2,0-0.3-0.1-0.4-0.2c-0.1-0.1-0.2-0.3-0.2-0.5c0-0.2,0.1-0.4,0.2-0.5c0.1-0.1,0.3-0.2,0.4-0.2h0.9
				v-1.8c0-0.2,0.1-0.4,0.2-0.6c0.1-0.1,0.2-0.2,0.4-0.2c0.2,0,0.3,0.1,0.4,0.2c0.1,0.1,0.2,0.3,0.2,0.6v1.8h0.5
				c0.2,0,0.3,0.1,0.4,0.2c0.1,0.1,0.2,0.3,0.2,0.5c0,0.2-0.1,0.4-0.2,0.5c-0.1,0.1-0.3,0.2-0.4,0.2h-0.5v2.4
				c0.3-0.2,0.5-0.3,0.6-0.2c0.2,0,0.3,0.1,0.4,0.3c0.1,0.2,0.1,0.4,0.1,0.6c0,0.2-0.1,0.3-0.3,0.4l-0.8,0.5v3.9
				c0,0.3-0.1,0.5-0.2,0.8c-0.1,0.2-0.3,0.4-0.5,0.5c-0.4,0.2-0.9,0.2-1.5,0.1c-0.2-0.1-0.3-0.2-0.4-0.3c-0.1-0.2-0.1-0.3,0-0.5
				c0.1-0.5,0.3-0.7,0.8-0.5c0.3,0.1,0.4,0.1,0.5,0.1c0.1,0,0.2-0.2,0.2-0.4v-3l-0.7,0.3c-0.2,0.1-0.3,0.1-0.5,0
				c-0.1-0.1-0.2-0.2-0.3-0.4c-0.1-0.2,0-0.4,0-0.5c0.1-0.2,0.2-0.3,0.4-0.4l1.1-0.5V140.1z M173,142.2h-2.7c-0.2,0-0.3-0.1-0.4-0.2
				c-0.1-0.1-0.1-0.3-0.1-0.5c0-0.2,0-0.3,0.1-0.4c0.1-0.1,0.2-0.2,0.4-0.2h2.7v-0.7h-1.9c-0.2,0-0.3-0.1-0.4-0.2
				c-0.1-0.1-0.2-0.3-0.2-0.5c0-0.2,0.1-0.3,0.2-0.5c0.1-0.1,0.3-0.2,0.4-0.2h1.9v-0.7h-2.6c-0.2,0-0.3-0.1-0.4-0.2
				c-0.1-0.1-0.1-0.3-0.1-0.5c0-0.2,0-0.3,0.1-0.4c0.1-0.1,0.2-0.2,0.4-0.2h2.6v-0.3c0-0.2,0-0.4,0.2-0.5c0.1-0.1,0.2-0.2,0.4-0.2
				c0.2,0,0.3,0.1,0.4,0.2c0.1,0.1,0.2,0.3,0.2,0.5v0.3h3.1c0.1,0,0.3,0.1,0.4,0.2c0.1,0.1,0.1,0.3,0.1,0.5c0,0.2,0,0.3-0.1,0.5
				c-0.1,0.1-0.2,0.2-0.4,0.2h-3.1v0.7h2.2c0.3,0,0.6,0.1,0.7,0.4c0.1,0.2,0.2,0.4,0.2,0.7v0.9h0.2c0.2,0,0.3,0.1,0.4,0.2
				c0.1,0.1,0.1,0.3,0.1,0.5c0,0.2,0,0.3-0.1,0.4c-0.1,0.1-0.2,0.2-0.4,0.2h-0.2v0.6c0,0.4-0.1,0.8-0.3,1c-0.2,0.3-0.5,0.4-0.9,0.4
				h-1.9v1h2.6c0.1,0,0.3,0.1,0.4,0.2c0.1,0.1,0.1,0.3,0.1,0.5c0,0.2,0,0.3-0.1,0.4c-0.1,0.1-0.2,0.2-0.4,0.2h-2.6v1.4l1,0h2.2
				c0.2,0,0.4,0.1,0.5,0.2c0.1,0.1,0.2,0.3,0.2,0.5c0,0.2-0.1,0.4-0.2,0.5c-0.1,0.1-0.3,0.2-0.5,0.2h-1.7c-0.6,0-1.2-0.1-1.8-0.2
				c-1-0.2-1.9-0.8-2.6-1.8c-0.3,0.8-0.7,1.4-1.1,1.9c-0.1,0.2-0.3,0.2-0.4,0.2c-0.2,0-0.3-0.1-0.4-0.2c-0.1-0.1-0.1-0.3-0.1-0.4
				c0-0.2,0.1-0.3,0.3-0.5c0.7-0.9,1.1-2,1.3-3.2c0-0.2,0.1-0.4,0.2-0.5c0.1-0.1,0.3-0.1,0.4-0.1c0.2,0,0.3,0.1,0.4,0.3
				c0.1,0.1,0.1,0.3,0.1,0.6l-0.1,0.5l0,0.1c0.4,0.8,0.8,1.3,1.2,1.6v-3.3h-1.9c-0.2,0-0.3-0.1-0.4-0.2c-0.1-0.1-0.1-0.3-0.2-0.5
				c0-0.2,0.1-0.3,0.2-0.4c0.1-0.1,0.3-0.2,0.4-0.2h1.9V142.2z M175.8,140.2h-1.6v0.7h1.9v-0.4c0-0.1,0-0.2-0.1-0.2
				C176,140.2,175.9,140.2,175.8,140.2z M176.1,142.2h-1.9v0.7h1.5c0.1,0,0.3,0,0.3-0.1c0.1-0.1,0.1-0.2,0.1-0.4V142.2z"/>
			<path d="M192.1,144.1c-0.2,0.1-0.3,0.2-0.5,0.2c-0.2,0-0.3-0.1-0.4-0.3c-0.1-0.2-0.1-0.4-0.1-0.5c0-0.2,0.1-0.4,0.3-0.5
				c0.8-0.9,1.5-1.9,1.9-3c0.1-0.2,0.2-0.4,0.4-0.4c0.1-0.1,0.3-0.1,0.5,0c0.2,0.1,0.3,0.2,0.3,0.4c0.1,0.4-0.2,1.1-0.9,2.3v6.7
				c0,0.2-0.1,0.4-0.2,0.5c-0.1,0.1-0.2,0.2-0.4,0.2c-0.2,0-0.3-0.1-0.4-0.2c-0.1-0.1-0.2-0.3-0.2-0.6v-5.1L192.1,144.1z
				 M193.3,136.1c0.1-0.1,0.3-0.1,0.5,0c0.2,0.1,0.3,0.2,0.3,0.4c0.1,0.5-0.2,1.3-0.9,2.5c-0.6,1-1.1,1.5-1.4,1.5
				c-0.2,0-0.3-0.1-0.4-0.3c-0.2-0.4-0.2-0.8,0.1-1c0.7-0.7,1.2-1.5,1.5-2.5C193,136.4,193.1,136.2,193.3,136.1z M197.6,145.2h-2.7
				c-0.2,0-0.3-0.1-0.4-0.2c-0.1-0.1-0.2-0.3-0.2-0.5c0-0.2,0-0.4,0.2-0.5c0.1-0.1,0.3-0.2,0.4-0.2h6.8c0.2,0,0.3,0.1,0.4,0.2
				c0.1,0.1,0.2,0.3,0.2,0.5c0,0.2,0,0.3-0.2,0.5c-0.1,0.1-0.2,0.2-0.4,0.2h-2.9v2.6h3.2c0.2,0,0.3,0.1,0.4,0.2
				c0.1,0.1,0.2,0.3,0.2,0.5c0,0.2,0,0.3-0.2,0.5c-0.1,0.1-0.2,0.2-0.4,0.2h-7.7c-0.2,0-0.3-0.1-0.4-0.2c-0.1-0.1-0.1-0.3-0.1-0.5
				c0-0.2,0-0.3,0.1-0.5c0.1-0.1,0.3-0.2,0.4-0.2h3.2V145.2z M200.7,138h-2h0c0.2,0.1,0.3,0.2,0.3,0.4c0.1,0.4-0.1,1-0.7,2
				c-0.1,0.1-0.1,0.3-0.2,0.4c0,0.1,0.2,0.6,0.6,1.3c0.3,0.5,0.4,0.9,0.4,1.2c0,0.2-0.1,0.3-0.3,0.4c-0.1,0.1-0.3,0.1-0.5,0.1
				c-0.1-0.1-0.3-0.2-0.4-0.4c-0.2-0.6-0.5-1.1-0.7-1.4c-0.2-0.3-0.4-0.7-0.4-0.9c0-0.3,0.1-0.5,0.2-0.9c0.3-0.5,0.5-1.1,0.7-1.7
				c0.1-0.2,0.2-0.4,0.4-0.5h-2.1h0c0.2,0.1,0.3,0.2,0.3,0.4c0.1,0.4-0.1,1.1-0.7,2c-0.1,0.1-0.1,0.2-0.1,0.3
				c-0.1,0.2,0.2,0.6,0.6,1.4c0.3,0.5,0.4,0.9,0.4,1.2c0,0.2-0.1,0.3-0.3,0.4c-0.1,0.1-0.3,0.1-0.5,0.1c-0.1-0.1-0.3-0.2-0.4-0.4
				c-0.2-0.6-0.5-1.1-0.7-1.4c-0.2-0.3-0.4-0.6-0.4-0.9c0-0.3,0.1-0.5,0.2-0.9c0.2-0.5,0.5-1.1,0.7-1.7c0.1-0.2,0.2-0.4,0.3-0.5l0,0
				h-1c-0.2,0-0.3-0.1-0.4-0.2c-0.1-0.1-0.2-0.3-0.2-0.5c0-0.2,0-0.3,0.2-0.5c0.1-0.1,0.3-0.2,0.4-0.2h6.9c0.2,0,0.3,0.1,0.4,0.2
				c0.1,0.1,0.2,0.3,0.2,0.5c0,0.2,0,0.3-0.2,0.5c-0.1,0.1-0.2,0.2-0.4,0.2h-0.4c0.1,0.1,0.2,0.2,0.3,0.4c0.1,0.4-0.2,1-0.8,2
				l-0.1,0.2c-0.1,0.2,0,0.6,0.4,1.1c0.5,0.8,0.7,1.3,0.7,1.6c0,0.2-0.2,0.3-0.3,0.4c-0.2,0.1-0.3,0.1-0.5,0.1
				c-0.2-0.1-0.3-0.2-0.4-0.4c-0.3-0.7-0.6-1.2-0.8-1.5c-0.3-0.4-0.4-0.7-0.4-0.9c0-0.3,0.1-0.5,0.3-0.9c0.3-0.5,0.5-1,0.8-1.6
				C200.5,138.1,200.6,138,200.7,138L200.7,138z"/>
		</g>
	</g>
	<g>
		<g>
			<g>
				<path class="st4" d="M214.1,30c0-0.5,0.1-1.1,0.3-1.5c0.2-0.5,0.5-0.9,0.8-1.2c0.3-0.3,0.6-0.5,1-0.7c0.5-0.3,1.1-0.4,1.7-0.4
					c0.4,0,0.8,0.1,1.2,0.2c0.4,0.1,0.7,0.3,1,0.5c0.3,0.2,0.6,0.5,0.8,0.8c0.2,0.3,0.4,0.7,0.6,1.1c0.1,0.4,0.2,0.8,0.2,1.2
					c0,0.6-0.1,1.1-0.3,1.5c-0.2,0.5-0.5,0.9-0.8,1.2c-0.3,0.3-0.7,0.6-1.1,0.8c-0.5,0.3-1.1,0.4-1.7,0.4c-0.7,0-1.3-0.2-1.9-0.5
					c-0.6-0.3-1.1-0.8-1.4-1.4C214.3,31.3,214.1,30.7,214.1,30z M214.6,30c0,0.6,0.1,1.1,0.4,1.7c0.3,0.6,0.7,1,1.2,1.3
					c0.5,0.3,1.1,0.5,1.7,0.5c0.5,0,1-0.1,1.5-0.3c0.3-0.2,0.6-0.4,0.9-0.7c0.3-0.3,0.5-0.6,0.7-1.1c0.2-0.4,0.3-0.9,0.3-1.4
					c0-0.4-0.1-0.7-0.2-1.1c-0.1-0.4-0.3-0.7-0.5-1c-0.2-0.3-0.5-0.5-0.7-0.7c-0.3-0.2-0.6-0.4-0.9-0.5c-0.3-0.1-0.7-0.2-1.1-0.2
					c-0.6,0-1.2,0.2-1.7,0.5c-0.5,0.3-1,0.7-1.2,1.3S214.6,29.5,214.6,30z M216.2,32v-0.2c0.2,0,0.4,0,0.4,0c0,0,0.1,0,0.1-0.1
					c0,0,0-0.2,0-0.3v-3c0-0.2,0-0.3,0-0.3c0,0-0.1-0.1-0.1-0.1c0,0-0.2,0-0.4,0v-0.2h1.8c0.4,0,0.7,0,1,0.1
					c0.2,0.1,0.4,0.2,0.5,0.4c0.1,0.2,0.1,0.3,0.1,0.5c0,0.3-0.1,0.5-0.3,0.7c-0.2,0.2-0.5,0.3-0.9,0.4c0.1,0,0.2,0.1,0.3,0.1
					c0.1,0.1,0.2,0.2,0.3,0.3c0.1,0.1,0.2,0.3,0.3,0.6c0.1,0.3,0.2,0.5,0.3,0.6c0.1,0.1,0.1,0.1,0.2,0.2c0,0,0.1,0,0.2,0.1V32h-0.5
					c-0.2,0-0.3,0-0.4-0.1c-0.1,0-0.2-0.1-0.2-0.2c-0.1-0.2-0.2-0.5-0.4-0.9c-0.1-0.2-0.2-0.4-0.3-0.5c-0.1-0.1-0.1-0.2-0.2-0.2
					c-0.1,0-0.2,0-0.4,0h-0.2v1.3c0,0.2,0,0.3,0,0.3c0,0,0.1,0.1,0.1,0.1c0,0,0.1,0,0.3,0V32H216.2z M217.4,29.8h0.2
					c0.4,0,0.8-0.1,1-0.2c0.2-0.2,0.3-0.4,0.3-0.7c0-0.3-0.1-0.5-0.2-0.7s-0.4-0.2-0.8-0.2h-0.2c-0.1,0-0.2,0-0.2,0s0,0.1-0.1,0.1
					c0,0,0,0.1,0,0.3V29.8z"/>
			</g>
		</g>
		<g>
			<g>
				<path class="st0" d="M234.5,59.2c0-0.5,0.1-1.1,0.3-1.5c0.2-0.5,0.5-0.9,0.8-1.2c0.3-0.3,0.6-0.5,1-0.7c0.5-0.3,1.1-0.4,1.7-0.4
					c0.4,0,0.8,0.1,1.2,0.2c0.4,0.1,0.7,0.3,1,0.5c0.3,0.2,0.6,0.5,0.8,0.8c0.2,0.3,0.4,0.7,0.6,1.1c0.1,0.4,0.2,0.8,0.2,1.2
					c0,0.6-0.1,1.1-0.3,1.5c-0.2,0.5-0.5,0.9-0.8,1.2c-0.3,0.3-0.7,0.6-1.1,0.8c-0.5,0.3-1.1,0.4-1.7,0.4c-0.7,0-1.3-0.2-1.9-0.5
					c-0.6-0.3-1.1-0.8-1.4-1.4C234.6,60.5,234.5,59.9,234.5,59.2z M234.9,59.2c0,0.6,0.1,1.1,0.4,1.7c0.3,0.6,0.7,1,1.2,1.3
					c0.5,0.3,1.1,0.5,1.7,0.5c0.5,0,1-0.1,1.5-0.3c0.3-0.2,0.6-0.4,0.9-0.7c0.3-0.3,0.5-0.6,0.7-1.1c0.2-0.4,0.3-0.9,0.3-1.4
					c0-0.4-0.1-0.7-0.2-1.1c-0.1-0.4-0.3-0.7-0.5-1c-0.2-0.3-0.5-0.5-0.7-0.7c-0.3-0.2-0.6-0.4-0.9-0.5c-0.3-0.1-0.7-0.2-1.1-0.2
					c-0.6,0-1.2,0.2-1.7,0.5c-0.5,0.3-1,0.7-1.2,1.3C235.1,58.1,234.9,58.7,234.9,59.2z M236.5,61.2V61c0.2,0,0.4,0,0.4,0
					c0,0,0.1,0,0.1-0.1c0,0,0-0.2,0-0.3v-3c0-0.2,0-0.3,0-0.3c0,0-0.1-0.1-0.1-0.1c0,0-0.2,0-0.4,0V57h1.8c0.4,0,0.7,0,1,0.1
					c0.2,0.1,0.4,0.2,0.5,0.4c0.1,0.2,0.1,0.3,0.1,0.5c0,0.3-0.1,0.5-0.3,0.7c-0.2,0.2-0.5,0.3-0.9,0.4c0.1,0,0.2,0.1,0.3,0.1
					c0.1,0.1,0.2,0.2,0.3,0.3c0.1,0.1,0.2,0.3,0.3,0.6c0.1,0.3,0.2,0.5,0.3,0.6c0.1,0.1,0.1,0.1,0.2,0.2c0,0,0.1,0,0.2,0.1v0.2h-0.5
					c-0.2,0-0.3,0-0.4-0.1c-0.1,0-0.2-0.1-0.2-0.2c-0.1-0.2-0.2-0.5-0.4-0.9c-0.1-0.2-0.2-0.4-0.3-0.5c-0.1-0.1-0.1-0.2-0.2-0.2
					c-0.1,0-0.2,0-0.4,0h-0.2v1.3c0,0.2,0,0.3,0,0.3c0,0,0.1,0.1,0.1,0.1c0,0,0.1,0,0.3,0v0.2H236.5z M237.7,59.1h0.2
					c0.4,0,0.8-0.1,1-0.2c0.2-0.2,0.3-0.4,0.3-0.7c0-0.3-0.1-0.5-0.2-0.7c-0.2-0.2-0.4-0.2-0.8-0.2H238c-0.1,0-0.2,0-0.2,0
					c0,0,0,0.1-0.1,0.1c0,0,0,0.1,0,0.3V59.1z"/>
			</g>
		</g>
	</g>
</g>
<g>
</g>
<g>
</g>
<g>
</g>
<g>
</g>
<g>
</g>
<g>
</g>
<g>
</g>
<g>
</g>
<g>
</g>
<g>
</g>
<g>
</g>
<g>
</g>
</svg>
